<?xml version="1.0" standalone="no"?>
<!DOCTYPE svg PUBLIC "-//W3C//DTD SVG 20010904//EN"
 "http://www.w3.org/TR/2001/REC-SVG-20010904/DTD/svg10.dtd">
<svg version="1.0" xmlns="http://www.w3.org/2000/svg"
 width="800.000000pt" height="800.000000pt" viewBox="0 0 800.000000 800.000000"
 preserveAspectRatio="xMidYMid meet">

<g transform="translate(0.000000,800.000000) scale(0.100000,-0.100000)"
fill="#000000" stroke="none">
<path d="M3565 6836 c-377 -74 -628 -157 -893 -293 -712 -367 -1246 -1042
-1436 -1815 -70 -285 -100 -678 -56 -722 19 -19 40 63 50 191 35 442 213 940
476 1330 292 434 655 747 1129 974 269 128 426 176 873 263 263 52 285 55 312
41 32 -16 110 -29 272 -44 268 -25 630 -136 925 -284 295 -148 515 -306 743
-536 267 -268 483 -600 623 -956 78 -197 118 -346 183 -680 31 -159 58 -292
60 -294 2 -2 11 13 20 35 28 68 15 269 -34 504 -68 324 -141 535 -272 787
-427 824 -1225 1376 -2151 1489 -163 20 -336 24 -364 7 -15 -9 -26 -8 -50 5
-51 28 -263 27 -410 -2z"/>
<path d="M3970 6734 c-8 -8 -16 -31 -19 -51 l-6 -36 -140 2 c-277 4 -627 -88
-982 -259 l-143 -68 -25 29 c-32 39 -49 29 -42 -25 l6 -42 -102 -67 c-295
-191 -602 -500 -773 -778 -35 -56 -36 -57 -74 -52 -32 5 -40 2 -50 -17 -10
-19 -9 -27 9 -51 l21 -29 -59 -122 c-152 -317 -236 -625 -264 -972 l-11 -149
-28 -9 c-15 -5 -30 -19 -33 -30 -8 -23 20 -58 47 -58 15 0 18 -8 18 -49 0 -74
18 -243 40 -371 41 -240 127 -504 231 -713 55 -110 58 -120 44 -140 -33 -48
-9 -85 47 -72 20 4 29 -4 63 -61 101 -165 279 -375 453 -534 99 -91 282 -231
368 -283 48 -28 52 -34 47 -59 -10 -50 31 -75 69 -41 17 15 26 13 146 -45 318
-153 637 -238 999 -264 l161 -12 6 -28 c7 -36 23 -36 43 0 16 29 17 29 167 41
150 12 370 48 476 77 199 55 420 140 555 214 l70 37 26 -19 c22 -17 30 -18 48
-8 17 9 22 19 19 44 -3 32 1 36 102 104 156 105 261 192 400 331 144 145 230
249 337 411 42 63 80 119 83 123 4 4 19 3 33 -2 35 -14 43 1 21 38 -18 30 -17
31 25 117 128 257 203 487 250 764 17 97 41 343 41 417 0 16 7 22 27 25 37 4
40 25 6 40 -15 7 -29 12 -30 13 -1 1 -7 64 -13 140 -29 363 -118 687 -276
1003 l-71 142 25 19 c33 24 21 44 -25 39 -34 -4 -36 -2 -98 91 -97 147 -186
253 -329 396 -153 152 -254 236 -423 348 -68 45 -123 87 -123 94 0 6 4 23 10
37 8 23 7 26 -12 26 -12 0 -32 -9 -44 -21 l-22 -20 -81 40 c-326 164 -771 273
-1061 259 -91 -4 -91 -4 -96 21 -16 74 -27 91 -54 91 -10 0 -23 -7 -30 -16z
m278 -138 c1 -2 -3 -48 -9 -103 -12 -114 -9 -175 8 -181 22 -7 33 47 33 165
l0 115 48 -7 c56 -8 184 -33 187 -37 2 -2 -8 -55 -22 -118 -25 -120 -26 -151
-5 -158 20 -6 41 59 53 165 6 54 12 99 14 101 4 4 198 -48 213 -57 8 -4 0 -41
-23 -116 -36 -114 -42 -150 -26 -160 23 -13 55 67 81 198 l12 58 31 -7 c17 -3
68 -22 114 -41 62 -26 81 -38 74 -47 -17 -20 -91 -204 -91 -226 0 -28 24 -25
44 4 8 14 30 68 48 120 18 53 36 96 41 96 15 0 167 -80 167 -89 0 -4 -19 -41
-41 -82 -121 -215 -144 -274 -119 -304 18 -22 35 -19 74 15 34 30 115 177 151
273 10 26 22 47 27 47 11 0 154 -96 162 -109 4 -5 -18 -43 -49 -83 -68 -91
-91 -136 -76 -151 15 -15 74 50 122 139 l41 74 47 -37 c26 -21 67 -55 91 -75
l43 -37 -49 -56 c-110 -126 -134 -165 -100 -165 29 0 64 38 173 189 3 5 85
-70 132 -122 l36 -40 -88 -81 c-85 -79 -107 -116 -68 -116 19 0 91 64 150 134
l33 39 31 -38 c18 -21 51 -63 74 -93 l41 -55 -38 -26 c-83 -56 -160 -122 -160
-136 0 -40 78 1 166 86 l51 50 24 -33 c14 -18 32 -45 42 -60 9 -16 24 -39 32
-52 16 -24 16 -24 -107 -97 -68 -40 -140 -86 -161 -102 -41 -32 -56 -69 -36
-93 32 -39 149 18 341 166 l27 21 47 -93 c25 -51 42 -94 38 -96 -71 -27 -219
-110 -219 -122 0 -32 79 -8 192 60 l51 31 41 -106 c23 -58 41 -108 41 -110 0
-2 -37 -16 -82 -31 -133 -43 -178 -71 -148 -89 14 -9 113 21 173 52 27 13 55
22 62 20 10 -5 33 -76 60 -189 7 -26 6 -26 -92 -49 -106 -24 -157 -44 -148
-59 11 -18 82 -11 165 16 45 14 84 23 87 21 7 -7 32 -157 33 -193 l0 -30 -107
-13 c-111 -13 -147 -24 -140 -44 6 -17 118 -13 192 7 32 8 61 14 62 12 2 -2 6
-46 10 -100 l6 -96 -64 -2 c-35 -1 -86 -1 -114 0 -85 4 -196 -14 -217 -36 -27
-26 -11 -56 39 -73 36 -12 213 -8 311 7 l42 7 0 -55 c0 -30 -3 -76 -6 -102
l-7 -47 -122 7 c-91 5 -124 3 -130 -6 -16 -25 17 -35 130 -39 l115 -3 -1 -37
c0 -40 -23 -179 -31 -186 -2 -3 -54 5 -114 17 -112 22 -148 20 -138 -6 7 -17
65 -34 162 -45 41 -5 76 -12 79 -14 4 -4 -45 -207 -52 -215 -2 -2 -49 10 -106
27 -56 17 -113 31 -126 31 -29 0 -30 -21 -1 -39 26 -16 152 -51 185 -51 28 0
36 -13 23 -42 -5 -13 -23 -60 -40 -104 l-31 -82 -99 44 c-99 43 -156 56 -148
32 8 -23 54 -49 137 -78 45 -15 85 -30 87 -33 9 -8 -75 -167 -88 -167 -6 0
-61 28 -122 63 -134 77 -196 102 -231 93 -29 -7 -34 -39 -10 -74 20 -28 129
-92 225 -133 41 -17 79 -35 83 -39 8 -7 -88 -170 -99 -170 -2 0 -27 15 -56 34
-73 46 -159 89 -166 82 -9 -10 39 -55 116 -108 39 -28 72 -53 72 -56 0 -7
-107 -137 -125 -152 -11 -9 -25 -2 -69 34 -68 55 -145 101 -154 92 -3 -4 35
-46 86 -94 l92 -88 -78 -76 -77 -76 -48 49 c-63 64 -136 123 -143 116 -10 -9
14 -44 81 -119 36 -40 65 -76 65 -80 0 -8 -160 -142 -164 -137 -50 70 -166
192 -174 184 -9 -9 18 -57 74 -132 30 -39 54 -75 54 -80 0 -14 -142 -105 -150
-96 -4 4 -41 53 -83 109 -41 55 -98 125 -125 155 l-50 54 -7 -28 c-9 -33 21
-116 67 -192 17 -27 46 -76 64 -107 l32 -57 -61 -34 c-104 -58 -99 -59 -142
35 -41 92 -71 138 -87 138 -22 0 1 -82 44 -157 23 -41 43 -78 43 -81 0 -6
-185 -81 -202 -82 -6 0 -21 30 -33 67 -36 110 -61 163 -78 163 -23 0 -10 -73
30 -166 l36 -82 -98 -26 c-53 -14 -103 -26 -112 -26 -10 0 -20 23 -32 77 -23
105 -46 165 -60 160 -17 -6 -10 -104 13 -171 12 -33 21 -65 21 -71 0 -13 -208
-51 -218 -40 -3 3 -12 54 -19 112 -14 115 -34 159 -51 112 -10 -25 0 -123 18
-189 5 -19 6 -37 2 -41 -4 -4 -48 -9 -99 -13 l-91 -6 -4 173 c-4 180 -13 221
-51 233 -54 17 -77 -95 -56 -275 8 -68 11 -125 7 -127 -4 -2 -50 -1 -103 2
l-96 7 5 71 c3 39 2 98 -2 131 -7 54 -9 58 -20 38 -7 -12 -17 -68 -23 -125 -5
-56 -12 -104 -14 -106 -2 -2 -50 4 -108 13 l-104 17 8 42 c11 62 23 216 16
216 -15 0 -37 -63 -53 -149 l-18 -93 -36 5 c-19 2 -67 14 -106 26 l-71 21 19
72 c10 40 21 98 24 128 5 54 5 55 -13 34 -10 -12 -32 -65 -48 -118 -35 -111
-23 -108 -158 -54 -62 24 -77 34 -71 47 12 28 61 175 68 204 4 16 2 27 -4 27
-15 0 -44 -51 -81 -142 -18 -43 -36 -78 -41 -78 -8 0 -148 68 -157 76 -2 2 14
43 37 91 22 49 56 134 76 190 29 85 33 103 20 103 -44 0 -97 -68 -198 -253
-26 -47 -42 -67 -52 -63 -11 4 -124 77 -143 92 -1 1 8 18 22 36 46 62 110 188
95 188 -18 0 -52 -38 -112 -123 -33 -46 -51 -65 -59 -59 -7 5 -45 34 -84 66
l-73 57 53 72 c142 193 110 198 -57 8 l-38 -44 -76 76 -75 76 56 60 c151 164
133 195 -27 44 l-66 -63 -65 81 c-36 45 -65 84 -65 88 0 4 28 30 63 58 78 64
123 111 114 120 -11 10 -53 -13 -137 -77 l-78 -59 -34 52 c-19 29 -42 64 -51
78 l-17 25 82 59 c44 32 115 88 157 124 42 35 78 66 81 68 2 2 -2 8 -10 14
-33 21 -114 -10 -279 -110 -47 -27 -87 -48 -91 -46 -13 8 -83 159 -74 162 19
6 170 94 194 113 l25 20 -27 0 c-15 0 -53 -12 -85 -26 -32 -14 -77 -34 -100
-44 l-41 -18 -37 99 c-21 55 -36 101 -34 103 2 3 27 13 54 23 79 31 175 77
175 86 0 15 -58 6 -148 -24 -52 -17 -97 -27 -102 -23 -8 10 -50 162 -50 185 0
9 23 21 63 32 106 31 177 59 171 68 -8 14 -45 11 -149 -12 -53 -12 -98 -19
-101 -16 -3 3 -12 49 -21 102 -17 106 -14 115 36 115 39 0 201 41 201 51 0 12
-106 11 -190 -1 -35 -5 -65 -8 -66 -7 -1 1 -5 43 -9 93 l-7 91 77 6 c81 7 313
45 326 53 15 9 -3 33 -34 45 -18 7 -102 13 -197 16 -90 2 -166 6 -168 8 -3 2
-1 42 3 89 l7 85 131 3 c117 3 129 5 108 16 -13 8 -70 19 -128 25 l-105 10 7
61 c12 113 25 157 43 152 20 -6 187 -26 220 -26 12 0 22 4 22 9 0 13 -47 29
-148 50 -51 10 -95 20 -97 23 -4 3 43 200 50 206 1 1 34 -6 73 -17 39 -11 97
-22 129 -26 l58 -6 -23 20 c-12 11 -67 34 -122 51 l-100 30 31 83 c17 45 33
90 36 100 7 21 11 21 70 -2 75 -29 193 -60 193 -51 0 15 -52 46 -130 79 -112
47 -107 37 -61 129 l40 80 98 -43 c54 -24 142 -60 196 -79 l97 -35 0 24 c0 34
-68 89 -209 168 l-122 69 17 26 c10 15 33 51 52 80 l35 52 31 -23 c72 -55 168
-117 181 -117 54 0 -6 65 -115 125 -39 21 -70 42 -70 46 0 6 93 128 136 178 2
2 40 -29 85 -68 82 -73 124 -100 136 -88 15 15 -20 57 -93 112 -44 33 -83 62
-88 67 -10 8 82 118 125 149 l29 20 87 -90 c49 -50 94 -91 101 -91 6 0 12 10
12 22 0 16 -28 51 -86 107 l-87 84 49 43 c27 24 68 57 91 74 l41 30 65 -87
c35 -49 74 -96 85 -107 20 -17 22 -17 28 -2 10 26 -8 57 -81 140 -36 41 -65
77 -65 80 0 6 150 106 159 106 4 0 43 -59 85 -131 85 -142 125 -194 156 -202
25 -7 50 17 50 48 0 35 -60 144 -130 237 -34 45 -64 87 -67 94 -4 10 154 104
175 104 4 0 13 -15 20 -33 17 -49 114 -207 123 -202 12 8 -7 70 -50 160 -22
47 -41 90 -41 94 0 8 180 81 198 81 5 0 14 -19 21 -42 7 -24 31 -81 54 -128
40 -82 41 -84 44 -50 3 29 -27 138 -61 221 -6 13 11 20 99 39 58 13 107 21
108 19 2 -2 20 -57 41 -121 20 -64 41 -120 46 -123 17 -10 11 68 -11 161 -11
47 -17 90 -12 94 4 4 44 13 88 19 44 7 90 15 103 18 19 5 22 1 22 -27 0 -39
39 -211 51 -224 17 -19 20 46 7 152 l-14 111 85 15 c47 9 89 16 92 16 4 0 9
-33 13 -72 10 -111 47 -343 57 -359 8 -12 12 -11 24 6 28 36 35 89 35 260 l0
171 92 -9 c51 -5 94 -10 96 -11z"/>
<path d="M3800 6108 c0 -14 7 -109 15 -210 22 -268 115 -1465 115 -1479 0 -8
22 -10 75 -7 42 3 78 8 81 11 5 5 -77 1116 -93 1247 l-6 55 69 -62 c38 -34 94
-87 124 -117 30 -31 58 -56 62 -56 5 0 81 34 170 75 88 41 162 74 163 73 1 -2
-71 -158 -160 -348 -90 -190 -160 -347 -156 -350 23 -20 133 -62 140 -54 12
13 511 1077 507 1081 -1 2 -144 -62 -316 -142 l-312 -145 -52 47 c-28 25 -114
107 -191 181 -262 253 -235 230 -235 200z"/>
<path d="M3366 5989 c-33 -10 -61 -21 -64 -23 -5 -5 367 -1127 377 -1138 6 -7
151 32 151 42 0 3 -85 259 -188 570 -125 373 -193 566 -203 567 -8 1 -41 -7
-73 -18z"/>
<path d="M2765 5681 c-148 -99 -278 -185 -288 -193 -16 -12 -14 -17 24 -75 23
-35 46 -63 50 -63 5 0 60 34 121 75 l112 74 159 -242 c88 -133 234 -354 323
-490 l164 -248 57 37 c32 20 62 40 67 44 9 9 -21 57 -396 625 -123 187 -227
345 -231 351 -4 7 34 38 98 80 58 38 105 73 105 77 0 12 -80 127 -88 127 -4
-1 -128 -81 -277 -179z"/>
<path d="M5040 5654 c-52 -71 -219 -301 -372 -512 -153 -210 -278 -388 -278
-395 0 -7 52 -64 115 -127 l115 -115 57 58 58 57 -69 69 c-39 40 -67 75 -64
83 5 11 249 350 268 371 6 7 115 -98 211 -204 19 -21 40 -39 45 -39 5 0 33 24
62 53 l52 53 -131 137 c-91 96 -129 142 -125 153 10 25 158 224 167 224 4 0
78 -76 164 -170 175 -190 160 -183 234 -106 l44 45 -184 198 c-101 109 -204
220 -230 247 l-46 49 -93 -129z"/>
<path d="M5933 5039 c-34 -11 -122 -51 -195 -89 -73 -39 -218 -112 -323 -162
-104 -51 -429 -212 -720 -359 l-530 -266 -35 18 c-39 21 -100 25 -118 7 -9 -9
-15 -9 -24 0 -7 7 -30 12 -53 12 -27 0 -84 19 -180 61 -641 279 -914 379
-1040 379 -122 0 -111 -85 21 -172 86 -57 142 -85 324 -163 80 -35 246 -108
370 -162 124 -55 251 -110 283 -123 48 -20 57 -27 57 -49 0 -23 -19 -37 -165
-121 -169 -96 -235 -145 -235 -174 0 -29 85 -20 180 20 47 19 123 51 168 70
46 19 93 39 103 45 15 7 29 4 62 -15 81 -47 174 -44 253 11 l39 26 185 -62
c102 -33 206 -64 231 -67 56 -8 89 7 89 41 0 53 -84 117 -289 220 -62 31 -112
58 -110 59 2 2 243 124 534 271 739 374 898 460 1115 606 119 79 165 121 157
142 -9 23 -74 21 -154 -4z m-1844 -976 c44 -86 -40 -184 -127 -148 -46 20 -66
56 -59 113 4 40 11 53 51 88 l47 41 38 -36 c21 -20 44 -46 50 -58z"/>
<path d="M3005 3614 c-20 -36 -35 -67 -33 -68 1 -2 54 -33 116 -70 61 -37 112
-71 112 -76 0 -4 -28 -32 -62 -60 -176 -147 -718 -614 -718 -619 1 -3 24 -31
53 -63 l52 -56 410 353 c226 195 415 354 420 354 6 1 55 -26 109 -59 54 -33
102 -58 106 -55 16 10 80 128 73 135 -19 16 -583 350 -592 350 -5 0 -26 -30
-46 -66z"/>
<path d="M4651 3520 c-72 -88 -131 -162 -131 -165 0 -2 39 -51 87 -107 47 -57
232 -277 410 -490 179 -214 328 -388 331 -388 8 0 16 10 235 283 92 114 167
212 167 216 0 4 -27 29 -59 55 l-60 47 -142 -177 c-116 -145 -143 -174 -154
-163 -38 41 -225 269 -225 275 0 3 33 45 73 91 133 155 131 152 117 168 -7 9
-34 33 -60 55 l-46 39 -93 -110 c-51 -60 -97 -109 -101 -109 -7 0 -245 277
-263 307 -6 9 19 47 78 120 47 58 84 109 83 113 -2 4 -29 29 -60 54 l-57 46
-130 -160z"/>
<path d="M3875 3500 c-3 -6 -3 -35 0 -64 l7 -54 -56 -38 c-31 -20 -56 -40 -56
-45 0 -4 25 -27 55 -51 l55 -43 0 -440 c0 -242 3 -471 7 -509 5 -58 4 -68 -8
-64 -9 4 -39 -15 -74 -47 -70 -61 -68 -66 25 -111 60 -28 60 -29 60 -71 l0
-43 80 0 80 0 0 34 0 33 62 7 c158 18 306 114 350 226 52 135 9 320 -99 423
-52 50 -145 117 -162 117 -24 0 -20 22 7 45 17 14 47 50 67 80 67 102 93 216
75 332 -22 140 -105 213 -241 213 l-68 0 -3 38 -3 37 -77 3 c-46 2 -79 -1 -83
-8z m289 -243 c39 -28 38 -162 -1 -244 -10 -21 -40 -60 -68 -88 l-50 -50 -3
189 c-2 145 1 191 10 198 20 12 92 9 112 -5z m-28 -643 c119 -56 184 -151 184
-267 0 -92 -57 -151 -175 -182 -99 -25 -91 -36 -98 143 -4 86 -7 199 -7 250 0
107 -5 104 96 56z"/>
<path d="M3585 3032 c-89 -86 -537 -510 -664 -629 l-66 -62 57 -58 58 -58 58
58 c32 31 63 57 70 57 6 0 84 -33 173 -72 l161 -73 -6 -72 -7 -72 33 -5 c68
-10 128 -13 128 -6 0 4 9 97 19 206 45 460 82 866 79 869 -2 2 -44 -36 -93
-83z m-105 -341 c0 -30 -32 -316 -35 -320 -6 -5 -215 90 -215 98 0 8 233 230
243 230 4 1 7 -3 7 -8z"/>
<path d="M4510 3078 c-36 -11 -66 -21 -68 -23 -2 -2 60 -223 138 -491 78 -269
144 -497 147 -507 3 -12 11 -16 20 -13 21 9 433 256 433 261 0 7 -72 125 -79
129 -3 2 -65 -31 -136 -74 -86 -52 -132 -74 -136 -67 -4 7 -48 156 -99 332
-51 176 -102 353 -114 394 -12 41 -26 75 -31 77 -6 1 -39 -7 -75 -18z"/>
<path d="M6796 3959 c-17 -42 -24 -90 -45 -320 -6 -58 -28 -175 -50 -261 -219
-860 -793 -1549 -1585 -1905 -226 -102 -381 -148 -755 -224 -190 -38 -347 -71
-349 -74 -8 -8 50 -26 113 -36 149 -25 587 66 925 191 357 132 756 398 1023
681 322 341 555 749 672 1175 89 326 134 750 84 799 -15 15 -18 13 -33 -26z"/>
<path d="M1159 3959 c-23 -55 -18 -270 10 -404 58 -286 108 -466 176 -635 356
-886 1126 -1528 2055 -1714 114 -23 387 -56 460 -56 76 0 143 16 137 33 -6 20
-76 38 -182 48 -215 20 -282 31 -428 68 -831 212 -1500 748 -1866 1495 -141
285 -188 435 -271 856 -34 168 -64 314 -68 324 -7 17 -10 15 -23 -15z"/>
</g>
</svg>
